# xmcd
#
# Track frame offsets: 
#        150
#        3119
#        13981
#        25608
#        36973
#        49423
#        63404
#        77632
#        90298
#        102662
#        116126
#        126293
#        136959
#        149444
#        164212
#        172723
#        189737
#        201428
#        220147
#        231586
#        248462
#        269768
#        281514
#        298500
#        311016
#        330174
#
# Disc length: 4632 seconds
#
# Revision: 0
# Processed by: cddbd v1.5.2PL0 Copyright (c) Steve Scherf et al.
# Submitted via: ExactAudioCopy v0.95b4
#
DISCID=8312161a
DTITLE=Hank Thompson - Hank Thompson and His Brazos Valley Boys CD 11
DYEAR=1996
DGENRE=Country
TTITLE0=Intro - 1961
TTITLE1=Honky Tonk Girl - 1961
TTITLE2=I Guess I'm Getting Over You - 1961
TTITLE3=I'll Step Aside -1961
TTITLE4=Orange Blossom Special - 1961
TTITLE5=I Didn't Mean To Fall In Love - 1961
TTITLE6=John Henry - 1961
TTITLE7=Nine Pound Hammer - 1961
TTITLE8=She's Just A Whole Lot Like You - 1961
TTITLE9=Have I Told You Lately That I Love You - 1961
TTITLE10=Steel Guitar Rag - 1961
TTITLE11=Just One Step Away - 1961
TTITLE12=Lost Highway - 1961
TTITLE13=A Six Pack To Go - 1961
TTITLE14=Intro - 1963
TTITLE15=Annie Over - 1963
TTITLE16=Drop Me Gently - 1963
TTITLE17=Forgive Me - 1963
TTITLE18=Rose City Chimes - 1963
TTITLE19=You're Walking On My Heart - 1963
TTITLE20=Oklahoma Hills - 1963
TTITLE21=That's The Recipe For A Heartache - 1963
TTITLE22=Darling What More Can I Say - 1963
TTITLE23=Hangover Tavern - 1963
TTITLE24=I'll Sign My Heart Away - 1963
TTITLE25=Teach Me How To Lie - 1963
EXTD=
EXTT0=
EXTT1=
EXTT2=
EXTT3=
EXTT4=
EXTT5=
EXTT6=
EXTT7=
EXTT8=
EXTT9=
EXTT10=
EXTT11=
EXTT12=
EXTT13=
EXTT14=
EXTT15=
EXTT16=
EXTT17=
EXTT18=
EXTT19=
EXTT20=
EXTT21=
EXTT22=
EXTT23=
EXTT24=
EXTT25=
PLAYORDER=
